<?xml version="1.0" encoding="utf-8"?>
<svg id="Layer_1" data-name="Layer 1" xmlns="http://www.w3.org/2000/svg" viewBox="0 0 841.89 87.08">
  <defs>
    <style>
      .cls-1, .cls-2 {
        stroke-width: 0px;
      }

      .cls-2 {
        fill: #231f20;
      }
    </style>
  </defs>
  <path class="cls-2" d="m394.36,58.29c.33-1.52,1.3-2.28,2.82-2.28h14.21c1.52,0,2.28.76,1.95,2.28l-1.95,11.18c-.22,1.41-1.19,2.28-2.71,2.28h-14.21c-1.52,0-2.28-.87-2.06-2.28l1.95-11.18Z"/>
  <path class="cls-1" d="M 540.27 54.88 C 542.15 46.9 544.07 38.92 545.88 30.93 C 548.15 20.89 554.84 15.39 565.26 15.36 C 587.89 15.31 610.51 15.34 633.69 15.34 C 629.16 20.04 625.09 24.48 620.71 28.59 C 619.84 29.4 617.75 29.07 616.23 29.07 C 598.26 29.1 580.28 29.09 561.77 29.09 C 559.69 38.81 557.63 48.43 555.45 58.64 C 560.88 58.64 565.8 58.64 570.72 58.64 C 584.21 58.64 597.7 58.75 611.18 58.56 C 614.59 58.51 616.67 59.26 617.75 62.65 C 618.66 65.49 620.15 68.15 621.57 71.3 C 619.56 71.4 576.85 71.45 556.85 71.57 C 552.95 71.59 548.93 70.9 545.66 68.66 C 543.93 67.48 542.39 65.95 541.31 64.14 C 540.23 62.33 539.85 60.31 539.9 58.15 C 539.93 57.05 540.08 55.95 540.28 54.86 L 540.27 54.88 Z"/>
  <path class="cls-1" d="M 301.28 15.73 C 301.28 16.059 299.99 17.31 299.5 17.75 C 298.76 18.42 298.03 19.09 297.29 19.76 C 295.82 21.1 294.34 22.45 292.86 23.77 C 291.14 25.31 289.39 26.83 287.61 28.3 C 286.62 29.12 284.7 29.04 283.2 29.05 C 267.22 29.1 251.239 28.895 235.26 29.1 C 232.147 29.14 228.286 29.286 227.46 36.41 L 285.97 36.41 C 284.93 41.44 284.03 45.85 283.01 50.8 C 280.9 50.8 278.94 50.8 276.97 50.8 C 261.3 50.8 245.63 50.8 229.96 50.8 C 225.887 50.8 223.683 53.107 223.35 57.72 C 224.99 57.8 258.36 58.21 273.4 57.83 C 278.75 57.69 281.967 59.199 284.32 63.97 C 285.244 65.845 287.506 69.536 288.42 71.22 C 288.46 71.29 288.18 71.54 288.05 71.54 C 287.59 71.54 284.15 71.57 283.86 71.57 C 264 71.59 244.17 71.52 224.31 71.5 C 222.3 71.5 220.26 71.47 218.28 71.15 C 210.04 69.82 206.19 64.41 207.8 56.45 C 209.47 48.22 211.2 40 213.03 31.8 C 215.34 21.46 221.75 15.72 232.51 15.58 C 236.63 15.53 240.74 15.49 244.86 15.47 C 248.98 15.45 253.09 15.43 257.21 15.43 C 261.33 15.43 265.44 15.43 269.56 15.43 C 273.68 15.43 277.79 15.45 281.91 15.46 C 286.03 15.47 296.52 15.49 297.66 15.49 C 298.76 15.49 301.36 15.376 301.28 15.73 Z"/>
  <path class="cls-1" d="M 814.64 16.43 C 814.25 16.94 808.04 22.45 806.56 23.77 C 804.84 25.31 803.09 26.83 801.31 28.3 C 800.32 29.12 798.4 29.04 796.9 29.05 C 780.92 29.1 764.94 29.03 748.96 29.1 C 741.72 29.14 742.57 27.66 741.16 36.41 L 799.67 36.41 C 798.63 41.44 797.73 45.85 796.71 50.8 C 794.6 50.8 792.64 50.8 790.67 50.8 C 775 50.8 759.33 50.8 743.66 50.8 C 739.587 50.8 737.383 53.107 737.05 57.72 C 738.69 57.8 740.33 57.95 741.96 57.95 C 757.01 57.97 772.06 58.21 787.1 57.83 C 792.45 57.69 795.563 59.219 798.02 63.97 C 798.606 65.104 801.251 70.148 802.041 71.418 C 802.081 71.488 797.85 71.57 797.56 71.57 C 777.7 71.59 757.87 71.52 738.01 71.5 C 736 71.5 733.96 71.47 731.98 71.15 C 723.74 69.82 719.89 64.41 721.5 56.45 C 723.17 48.22 724.9 40 726.73 31.8 C 729.04 21.46 735.45 15.72 746.21 15.58 C 750.33 15.53 754.44 15.49 758.56 15.47 C 762.68 15.45 766.79 15.43 770.91 15.43 C 775.03 15.43 779.14 15.43 783.26 15.43 C 787.38 15.43 791.49 15.45 795.61 15.46 C 799.73 15.47 803.84 15.48 807.96 15.49 C 809.09 15.49 813.58 15.43 814.68 15.52 C 814.82 15.53 814.75 16.31 814.64 16.45 L 814.64 16.43 Z"/>
  <path class="cls-1" d="m380.84,49.56c4.45,7.34.68,14.05-.52,20.8-.26,1.2-1.66,1.27-2.57,1.3-4.01.14-8.03.06-12.67.06,1.08-5.4,2.07-10.38,3.13-15.71h-51.28c-.93,4.18-1.72,8.36-2.85,12.44-.32,1.15-1.62,2.81-2.57,2.87-4.28.31-8.6.14-13.61.14,4-18.84,7.88-37.12,11.91-56.1,1.57,0,3.2,0,4.84,0,20.45,0,40.9-.02,61.35-.02,10.06,0,14.88,5.79,12.69,15.42-1.5,6.62-1.56,13.83-7.85,18.79Zm-7-20.22c-.79-.43-1.06-.69-1.32-.69-15.92-.06-31.85-.14-47.77-.05-.98,0-2.56,1.19-2.82,2.11-1.03,3.59-1.65,7.3-2.52,11.48,16.9,0,33.26.02,49.61-.07.84,0,2.25-.82,2.42-1.5.98-3.78,1.66-7.63,2.4-11.27Z"/>
  <path class="cls-1" d="M 206.7 28.1 C 208.88 20.13 204.06 15.34 194.01 15.34 C 173.56 15.34 153.11 15.35 132.66 15.36 C 131.03 15.36 126.385 15.384 126.38 15.41 C 123.822 28.647 123.26 31.7 121.55 39.82 C 121.48 40.19 121.39 40.56 121.31 40.93 C 119.28 48.97 117.97 56.87 115.95 64.75 C 115.36 67.67 114.511 71.542 114.543 71.542 C 120.136 71.584 128.05 71.5 143.81 71.5 C 154.66 71.75 165.37 71.29 176.13 71.5 C 177.74 71.53 187.32 71.54 190.96 70.49 C 191.49 70.34 192.58 69.74 193.68 69.11 C 199.97 65.01 199.13 58.51 200.63 53.03 C 201.73 49.03 201.05 45.84 198.84 43.64 C 205.13 39.54 205.19 33.57 206.69 28.09 L 206.7 28.1 Z M 139.93 28.05 C 140.2 27.29 141.77 26.31 142.75 26.3 C 143.78 26.3 144.82 26.3 145.85 26.29 C 146.88 26.28 147.92 26.29 148.95 26.29 C 149.98 26.29 151.02 26.29 152.05 26.29 C 153.08 26.29 154.12 26.29 155.15 26.29 C 156.18 26.29 157.22 26.29 158.25 26.29 C 159.28 26.29 160.32 26.29 161.35 26.29 C 162.38 26.29 163.42 26.29 164.45 26.29 C 165.48 26.29 166.52 26.29 167.55 26.29 C 168.58 26.29 169.62 26.29 170.65 26.29 C 171.68 26.29 172.72 26.29 173.75 26.29 C 174.78 26.29 175.82 26.29 176.85 26.29 C 177.88 26.29 178.92 26.29 179.95 26.29 C 180.98 26.29 182.02 26.29 183.05 26.29 L 186.15 26.29 C 187.18 26.3 189.98 26.32 190.35 26.31 C 190.88 26.31 191.95 26.28 191.82 26.96 C 191.74 27.35 191.63 27.73 191.54 28.12 C 191.44 28.52 191.35 28.92 191.25 29.32 C 191.06 30.13 190.86 30.94 190.66 31.75 C 190.46 32.57 190.25 33.39 190.02 34.2 C 189.83 34.87 189.64 35.54 189.43 36.21 C 189.25 36.77 187.85 37.45 187.01 37.45 C 170.65 37.52 154.29 37.5 137.4 37.5 C 138.28 34.04 138.89 30.98 139.92 28.01 L 139.93 28.05 Z M 185.48 51.77 C 185.38 52.17 185.29 52.57 185.19 52.97 C 185 53.78 184.8 54.59 184.6 55.4 C 184.4 56.22 184.19 57.04 183.96 57.85 C 183.77 58.52 183.58 59.19 183.37 59.86 C 183.19 60.42 181.79 61.1 180.95 61.1 C 164.59 61.17 148.23 61.15 131.34 61.15 C 132.22 57.69 132.83 54.63 133.86 51.66 C 134.13 50.9 135.7 49.92 136.68 49.91 C 137.71 49.91 138.75 49.91 139.78 49.9 C 140.81 49.9 141.85 49.9 142.88 49.9 C 143.91 49.9 144.95 49.9 145.98 49.9 C 147.01 49.9 148.05 49.9 149.08 49.9 C 150.11 49.9 151.15 49.9 152.18 49.9 C 153.21 49.9 154.25 49.9 155.28 49.9 C 156.31 49.9 157.35 49.9 158.38 49.9 C 159.41 49.9 160.45 49.9 161.48 49.9 C 162.51 49.9 163.55 49.9 164.58 49.9 C 165.61 49.9 166.65 49.9 167.68 49.9 C 168.71 49.9 169.75 49.9 170.78 49.9 L 173.88 49.9 C 174.91 49.91 175.95 49.92 176.98 49.92 C 178.01 49.92 179.05 49.92 180.08 49.93 C 181.11 49.93 183.91 49.95 184.28 49.94 C 184.81 49.94 185.88 49.91 185.75 50.59 C 185.67 50.98 185.56 51.36 185.47 51.75 L 185.48 51.77 Z"/>
  <path class="cls-1" d="m117.69,15.43c-3.95-.14-8-.06-12.65-.06-1.23,5.4-2.37,10.39-3.59,15.71,0,0-3.24,14.73-3.36,15.41-.28,1.66-1.78,9.34-2.11,10.13-.13.6-.25,1.62-1.15,1.81-.99.21-1.9.14-2.81.12-1.01-.02-1.99-.08-3.01-.08-2.02,0-4.04.02-6.06.02-3.22.01-6.45.02-9.67.03-1.49,0-2.98,0-4.47,0-1.48,0-2.96,0-4.43,0-3.23,0-6.46-.02-9.69-.03-2.02,0-4.03-.02-6.05-.02-1.01,0-2.03.06-3.04.08-.92.02-1.85.09-2.75-.12-.83-.19-.51-1.21-.38-1.81,0-.79,1.79-8.47,2.22-10.13.18-.68,3.23-15.41,3.23-15.41,1.06-5.32,2.05-10.3,3.13-15.71-4.65,0-8.66-.08-12.67.06-.91.03-2.31.1-2.57,1.3-1.2,6.76-6.87,32.98-8.37,39.6-2.18,9.63,2.64,15.42,12.69,15.42,8.62,0,17.24,0,25.87,0,8.62,0,17.25,0,25.88,0,10.06,0,17.35-5.79,19.28-15.42,1.33-6.62,6.88-32.84,8.56-39.6.25-1.2-1.12-1.27-2.01-1.3Z"/>
  <path class="cls-1" d="M 540.87 15.7 C 540.87 15.7 533.5 15.59 530.28 15.64 C 526.84 15.69 525.72 16.81 525.11 19.83 C 523.1 29.86 520.86 39.84 518.74 49.84 C 517.26 56.82 515.82 63.81 514.23 71.43 C 518.8 71.43 522.81 71.61 526.77 71.3 C 527.77 71.22 529.18 69.69 529.48 68.59 C 530.274 65.667 540.297 18.489 540.87 15.7 Z"/>
  <path class="cls-1" d="M 653.49 15.71 C 651.98 23.06 650.62 29.7 649.18 36.69 L 701.68 36.69 C 702.96 30.88 704.35 25.11 705.46 19.28 C 705.94 16.78 706.82 15.5 709.65 15.66 C 713.31 15.87 716.99 15.71 721.17 15.71 C 717.8 31.44 714.63 46.48 711.35 61.5 C 709.14 71.63 709.072 71.905 698.52 71.45 C 696.616 71.368 696.712 71.342 694.47 71.17 C 695.91 64.26 697.31 57.61 698.77 50.59 C 697.38 50.45 696.23 50.23 695.08 50.22 C 680.2 50.2 665.31 50.31 650.43 50.12 C 647.1 50.08 645.81 51.1 645.3 54.3 C 644.54 59.11 643.38 63.88 642.09 68.59 C 641.79 69.7 640.38 71.23 639.38 71.3 C 635.41 71.61 631.41 71.43 626.84 71.43 C 628.43 63.8 629.87 56.81 631.35 49.84 C 633.47 39.84 635.71 29.85 637.72 19.83 C 638.33 16.81 639.408 15.611 642.89 15.64 C 646.116 15.667 649.37 15.71 653.48 15.71 L 653.49 15.71 Z"/>
  <path class="cls-1" d="M 504.5 15.66 C 501.67 15.68 500.79 16.78 500.31 19.28 C 499.6 23 495.91 40.29 492.96 54.11 C 484.35 46.82 475.88 39.38 467.34 32.02 C 461.22 26.74 455.11 21.474 448.41 15.724 C 448.39 15.754 441.08 15.58 437.75 15.64 C 434.31 15.7 433.19 16.81 432.58 19.83 C 430.57 29.86 428.33 39.84 426.21 49.84 C 424.73 56.82 423.29 63.81 421.7 71.43 C 426.27 71.43 430.28 71.61 434.24 71.3 C 435.24 71.22 436.65 69.69 436.95 68.59 C 438.23 63.88 439.4 59.12 440.16 54.3 C 440.37 52.98 442.72 42.02 444.9 31.86 C 446.01 32.908 453.284 39.434 455.93 41.51 C 457.79 42.97 482.85 65.64 489.32 71.16 C 490.94 71.28 492.15 71.42 493.37 71.44 C 503.92 71.61 503.99 71.62 506.2 61.49 C 509.48 46.47 512.65 31.43 516.02 15.7 C 511.76 15.62 508.17 15.62 504.5 15.65 L 504.5 15.66 Z"/>
</svg>